<?xml version="1.0" encoding="utf-8"?>
<!-- Generator: Adobe Illustrator 16.0.0, SVG Export Plug-In . SVG Version: 6.00 Build 0)  -->
<!DOCTYPE svg PUBLIC "-//W3C//DTD SVG 1.0//EN" "http://www.w3.org/TR/2001/REC-SVG-20010904/DTD/svg10.dtd">
<svg version="1.0" id="Layer_1" xmlns="http://www.w3.org/2000/svg" xmlns:xlink="http://www.w3.org/1999/xlink" x="0px" y="0px"
	 width="512px" height="512px" viewBox="0 0 512 512" enable-background="new 0 0 512 512" xml:space="preserve">
<g>
	<circle fill="#8DC133" cx="256" cy="256.416" r="230"/>
</g>
<g>
	<defs>
		<circle id="SVGID_7_" cx="256" cy="256.416" r="230"/>
	</defs>
	<clipPath id="SVGID_2_">
		<use xlink:href="#SVGID_7_"  overflow="visible"/>
	</clipPath>
	<g clip-path="url(#SVGID_2_)">
		<g>
			<path fill="#143400" d="M256,418.416c43.271,0,83.953,16.851,114.552,47.448C401.149,496.462,418,537.144,418,580.416
				s-16.851,83.954-47.448,114.552c-30.599,30.598-71.28,47.448-114.552,47.448c-43.272,0-83.954-16.851-114.552-47.448
				S94,623.688,94,580.416s16.851-83.954,47.448-114.552S212.728,418.416,256,418.416 M256,328.416c-139.177,0-252,112.823-252,252
				s112.823,252,252,252c139.176,0,252-112.823,252-252S395.176,328.416,256,328.416L256,328.416z"/>
		</g>
	</g>
</g>
</svg>
