<?xml version="1.0" encoding="utf-8"?>
<!-- Generator: Adobe Illustrator 16.0.0, SVG Export Plug-In . SVG Version: 6.00 Build 0)  -->
<!DOCTYPE svg PUBLIC "-//W3C//DTD SVG 1.0//EN" "http://www.w3.org/TR/2001/REC-SVG-20010904/DTD/svg10.dtd">
<svg version="1.0" id="Layer_1" xmlns="http://www.w3.org/2000/svg" xmlns:xlink="http://www.w3.org/1999/xlink" x="0px" y="0px"
	 width="512px" height="512px" viewBox="0 0 512 512" enable-background="new 0 0 512 512" xml:space="preserve">
<g>
	<g>
		<path d="M255.999,476c-58.764,0-114.01-22.884-155.562-64.437C58.884,370.011,36,314.764,36,256
			c0-58.765,22.884-114.012,64.437-155.563C141.989,58.884,197.235,36,255.999,36c58.765,0,114.012,22.884,155.564,64.437
			C453.116,141.988,476,197.235,476,256s-22.884,114.011-64.437,155.563S314.764,476,255.999,476z"/>
		<path fill="#E6E6E6" d="M255.999,46c28.358,0,55.858,5.55,81.736,16.494c25.004,10.576,47.465,25.721,66.757,45.013
			c19.293,19.293,34.438,41.753,45.013,66.758C460.45,200.142,466,227.642,466,256s-5.55,55.858-16.495,81.735
			c-10.575,25.004-25.72,47.465-45.013,66.757c-19.292,19.293-41.753,34.438-66.757,45.013C311.857,460.45,284.357,466,255.999,466
			s-55.858-5.55-81.735-16.495c-25.004-10.575-47.464-25.72-66.757-45.013C88.215,385.2,73.07,362.739,62.495,337.735
			C51.549,311.858,46,284.358,46,256s5.549-55.858,16.495-81.735c10.576-25.005,25.72-47.465,45.013-66.758
			C126.8,88.215,149.26,73.07,174.264,62.494C200.141,51.55,227.641,46,255.999,46 M255.999,26C128.975,26,26,128.974,26,256
			c0,127.025,102.975,230,229.999,230C383.025,486,486,383.025,486,256C486,128.974,383.025,26,255.999,26L255.999,26z"/>
	</g>
	<g>
		<polygon fill="#ED1C24" points="241.174,314.4 271.003,305.058 202.983,134.383 199.028,135.622 		"/>
		<path fill="#ED1C24" d="M272.768,305.528l-32.774,10.266l-47.759-198.227l6.609-2.069l0.483,1.305L272.768,305.528z
			 M242.064,312.075l26.882-8.42l-66.999-167.924l-1.301,0.407L242.064,312.075z"/>
	</g>
	<circle fill="#CCCCCC" cx="256" cy="308.697" r="34.345"/>
</g>
</svg>
