<?xml version="1.0" encoding="utf-8"?>
<!-- Generator: Adobe Illustrator 16.0.0, SVG Export Plug-In . SVG Version: 6.00 Build 0)  -->
<!DOCTYPE svg PUBLIC "-//W3C//DTD SVG 1.0//EN" "http://www.w3.org/TR/2001/REC-SVG-20010904/DTD/svg10.dtd">
<svg version="1.0" id="Layer_1" xmlns="http://www.w3.org/2000/svg" xmlns:xlink="http://www.w3.org/1999/xlink" x="0px" y="0px"
	 width="512px" height="512px" viewBox="0 0 512 512" enable-background="new 0 0 512 512" xml:space="preserve">
<path fill="#9A9B9D" d="M391.662,428.311c0,32.895-62.406,59.564-139.39,59.564c-76.984,0-139.392-26.67-139.392-59.564
	c0-32.9,62.407-59.569,139.392-59.569C329.256,368.741,391.662,395.41,391.662,428.311z"/>
<ellipse fill="#333333" cx="252.272" cy="110.65" rx="193.06" ry="82.811"/>
<g>
	<path fill="#9A9B9D" d="M253.905,47.436c108.323,0,177.452,37.439,177.452,63.215s-69.129,63.215-177.452,63.215
		c-108.324,0-177.451-37.439-177.451-63.215S145.581,47.436,253.905,47.436 M252.272,25.662
		c-109.428,0-198.137,38.051-198.137,84.988s88.709,84.988,198.137,84.988c109.427,0,198.136-38.051,198.136-84.988
		S361.699,25.662,252.272,25.662L252.272,25.662z"/>
</g>
<path fill="#9A9B9D" d="M252.272,195.09c-98.734,0-180.59-30.979-195.646-71.511l56.255,304.56h278.781l56.256-304.56
	C432.861,164.111,351.006,195.09,252.272,195.09z"/>
</svg>
