<?xml version="1.0" encoding="utf-8"?>
<!-- Generator: Adobe Illustrator 16.0.0, SVG Export Plug-In . SVG Version: 6.00 Build 0)  -->
<!DOCTYPE svg PUBLIC "-//W3C//DTD SVG 1.0//EN" "http://www.w3.org/TR/2001/REC-SVG-20010904/DTD/svg10.dtd">
<svg version="1.0" id="Layer_1" xmlns="http://www.w3.org/2000/svg" xmlns:xlink="http://www.w3.org/1999/xlink" x="0px" y="0px"
	 width="512px" height="512px" viewBox="0 0 512 512" enable-background="new 0 0 512 512" xml:space="preserve">
<g>
	<path fill="#D1D6E8" d="M355.317,151.415l-0.252-52.329h-0.1c-1.2-19.937-42.963-35.95-94.305-35.95
		c-52.1,0-94.334,16.489-94.334,36.833c0,0.062,0.004,0.126,0.004,0.189h-0.004l0.246,51.343
		C108.148,165.803,64.735,215.43,64.735,274.021c0,4.454,0,147.55,0,147.55h0.406c0.546,26.748,88.161,48.391,196.171,48.391
		c108.012,0,195.624-21.643,196.171-48.391h0.012c0,0,0-142.987,0-147.55C457.495,215.315,413.915,165.606,355.317,151.415z"/>
	<path fill="#363666" d="M429.636,286.306c-0.565-36.139-76.289-65.365-168.975-65.365c-93.04,0-168.46,29.447-168.46,65.775
		c0,1.628,0.002,68.036,0.002,68.924c0,47.236,75.874,86.199,168.913,86.199c93.037,0,168.458-38.963,168.458-86.199
		C429.574,354.752,429.636,286.306,429.636,286.306z"/>
	<polygon fill="#626D7A" points="99.591,448.775 473.269,91.685 438.347,55.12 64.676,412.216 64.672,412.212 64.663,412.227 
		64.561,412.324 64.591,412.354 25.61,482.294 27.781,484.572 99.446,448.847 99.479,448.884 99.591,448.775 99.591,448.775 	"/>
</g>
</svg>
