<?xml version="1.0" encoding="utf-8"?>
<!-- Generator: Adobe Illustrator 16.0.0, SVG Export Plug-In . SVG Version: 6.00 Build 0)  -->
<!DOCTYPE svg PUBLIC "-//W3C//DTD SVG 1.0//EN" "http://www.w3.org/TR/2001/REC-SVG-20010904/DTD/svg10.dtd">
<svg version="1.0" id="Layer_1" xmlns="http://www.w3.org/2000/svg" xmlns:xlink="http://www.w3.org/1999/xlink" x="0px" y="0px"
	 width="512px" height="512px" viewBox="0 0 512 512" enable-background="new 0 0 512 512" xml:space="preserve">
<g>
	
		<rect x="87.513" y="47.446" transform="matrix(-0.9963 0.0863 -0.0863 -0.9963 554.1797 336.8806)" fill="#D8BD80" width="364.596" height="265.935"/>
	<path fill="#FFFFFF" d="M430.861,43.042l21.213,245.017l-343.312,29.727L87.549,72.767L430.861,43.042 M449.062,21.392
		L65.898,54.566l24.663,284.87l383.163-33.177L449.062,21.392L449.062,21.392z"/>
</g>
<g>
	
		<rect x="81.361" y="131.927" transform="matrix(-0.8865 0.4627 -0.4627 -0.8865 619.9631 377.7431)" fill="#82B5D8" width="364.599" height="265.935"/>
	<path fill="#FFFFFF" d="M359.516,76.162L473.302,294.19L167.809,453.625L54.02,235.598L359.516,76.162 M367.993,49.178
		L27.035,227.121l132.296,253.488l340.955-177.941L367.993,49.178L367.993,49.178z"/>
</g>
</svg>
