<?xml version="1.0" encoding="utf-8"?>
<!-- Generator: Adobe Illustrator 16.0.0, SVG Export Plug-In . SVG Version: 6.00 Build 0)  -->
<!DOCTYPE svg PUBLIC "-//W3C//DTD SVG 1.0//EN" "http://www.w3.org/TR/2001/REC-SVG-20010904/DTD/svg10.dtd">
<svg version="1.0" id="Layer_1" xmlns="http://www.w3.org/2000/svg" xmlns:xlink="http://www.w3.org/1999/xlink" x="0px" y="0px"
	 width="512px" height="512px" viewBox="0 0 512 512" enable-background="new 0 0 512 512" xml:space="preserve">
<g>
	<rect x="51.977" y="47.96" fill="#D34B48" width="303.179" height="314.351"/>
	<rect x="51.977" y="362.311" fill="#333333" width="303.179" height="90.634"/>
	<g>
		<path fill="#E5E5E5" d="M332.878,59.96v382h-275v-382H332.878 M360.878,31.96h-331v438h331V31.96L360.878,31.96z"/>
	</g>
	<polygon fill="#E5E5E5" points="348.336,507.323 196.361,435.042 354.513,109.523 506.485,181.804 	"/>
	<rect x="42.887" y="425.945" fill="#E5E5E5" width="307.484" height="28.498"/>
	
		<rect x="334.298" y="155.806" transform="matrix(0.9031 0.4295 -0.4295 0.9031 126.7499 -152.8948)" fill="#333333" width="135.6" height="97.096"/>
	
		<rect x="284.724" y="260.04" transform="matrix(0.9031 0.4295 -0.4295 0.9031 166.7137 -121.4981)" fill="#333333" width="135.6" height="97.097"/>
	
		<rect x="235.529" y="363.476" transform="matrix(0.9031 0.4295 -0.4295 0.9031 206.3682 -90.3404)" fill="#333333" width="135.597" height="97.097"/>
</g>
</svg>
