<?xml version="1.0" encoding="utf-8"?>
<!-- Generator: Adobe Illustrator 16.0.0, SVG Export Plug-In . SVG Version: 6.00 Build 0)  -->
<!DOCTYPE svg PUBLIC "-//W3C//DTD SVG 1.0//EN" "http://www.w3.org/TR/2001/REC-SVG-20010904/DTD/svg10.dtd">
<svg version="1.0" id="Layer_1" xmlns="http://www.w3.org/2000/svg" xmlns:xlink="http://www.w3.org/1999/xlink" x="0px" y="0px"
	 width="512px" height="512px" viewBox="0 0 512 512" enable-background="new 0 0 512 512" xml:space="preserve">
<g>
	<defs>
		<rect id="SVGID_9_" x="20.998" y="60.167" width="470" height="391.666"/>
	</defs>
	<clipPath id="SVGID_2_">
		<use xlink:href="#SVGID_9_"  overflow="visible"/>
	</clipPath>
	<g clip-path="url(#SVGID_2_)">
		<rect x="34.998" y="70" fill="#414042" width="442" height="372"/>
		<path fill="#E6E6E6" d="M462.998,84v344h-414V84H462.998 M490.998,56h-470v400h470V56L490.998,56z"/>
	</g>
	<g clip-path="url(#SVGID_2_)">
		<path fill="#E6E7E8" d="M255.999,246.389c31.905,0,61.9,12.424,84.459,34.983c22.559,22.559,34.982,52.553,34.982,84.458
			s-12.424,61.9-34.982,84.46c-22.559,22.559-52.554,34.982-84.459,34.982c-31.904,0-61.899-12.424-84.459-34.982
			c-22.56-22.56-34.983-52.555-34.983-84.46c0-31.904,12.424-61.899,34.983-84.458C194.1,258.812,224.095,246.389,255.999,246.389
			 M255.999,218.389c-81.431,0-147.442,66.011-147.442,147.441c0,81.433,66.012,147.442,147.442,147.442
			c81.433,0,147.441-66.01,147.441-147.442C403.44,284.399,337.432,218.389,255.999,218.389L255.999,218.389z"/>
	</g>
	<g clip-path="url(#SVGID_2_)">
		<defs>
			<circle id="SVGID_11_" cx="255.998" cy="365.83" r="173.177"/>
		</defs>
		<clipPath id="SVGID_4_">
			<use xlink:href="#SVGID_11_"  overflow="visible"/>
		</clipPath>
		<path clip-path="url(#SVGID_4_)" fill="#E6E7E8" d="M237.615,542.908c-12.311-1.271-24.501-3.843-36.23-7.645l9.978-30.793
			c9.571,3.101,19.522,5.201,29.576,6.239L237.615,542.908z M274.581,542.887l-3.362-32.194c10.05-1.051,19.997-3.158,29.565-6.27
			l10.01,30.783C299.069,539.018,286.885,541.603,274.581,542.887z M167.555,520.21c-10.677-6.168-20.747-13.483-29.934-21.748
			l21.647-24.066c7.514,6.76,15.75,12.743,24.477,17.785L167.555,520.21z M344.604,520.117l-16.219-28.015
			c8.719-5.047,16.946-11.036,24.452-17.805l21.675,24.045C365.333,506.616,355.271,513.942,344.604,520.117z M112.839,470.998
			c-7.283-9.991-13.524-20.761-18.558-32.015l29.553-13.209c4.106,9.189,9.21,17.99,15.162,26.155L112.839,470.998z M399.27,470.853
			l-26.179-19.04c5.945-8.175,11.039-16.983,15.137-26.181l29.568,13.178C412.776,450.069,406.543,460.852,399.27,470.853z
			 M110.603,366.956c2.555,12.02,3.857,24.395,3.869,36.785l-32.368,0.033c-0.011-10.143-1.076-20.267-3.163-30.088L110.603,366.956
			z M401.388,366.436l31.67,6.696c-2.078,9.822-3.13,19.946-3.13,30.091v0.356h-32.369v-0.356
			C397.559,390.833,398.848,378.457,401.388,366.436z M92.025,294.96l31.678,6.658c-2.543,12.093-6.375,23.949-11.396,35.242
			l-29.58-13.146C86.823,314.5,89.951,304.827,92.025,294.96z M419.753,294.423c2.106,9.856,5.268,19.52,9.391,28.721l-29.537,13.24
			c-5.053-11.274-8.927-23.115-11.508-35.196L419.753,294.423z M132.843,235.378l26.198,19.012
			c-7.247,9.982-15.563,19.238-24.723,27.517l-21.699-24.019C120.112,251.116,126.919,243.542,132.843,235.378z M378.747,234.993
			c5.951,8.147,12.781,15.698,20.296,22.443l-21.622,24.09c-9.186-8.245-17.533-17.475-24.81-27.436L378.747,234.993z
			 M194.812,198.441l16.25,27.995c-10.69,6.207-22.062,11.297-33.792,15.128l-10.046-30.772
			C176.8,207.665,186.079,203.511,194.812,198.441z M316.64,198.262c8.752,5.041,18.05,9.166,27.635,12.259l-9.941,30.805
			c-11.746-3.79-23.134-8.841-33.85-15.016L316.64,198.262z M270.79,189.738l3.396,32.191c-12.186,1.287-24.763,1.308-36.963,0.062
			l3.286-32.202C250.503,190.811,260.812,190.794,270.79,189.738z"/>
	</g>
</g>
</svg>
