<?xml version="1.0" encoding="utf-8"?>
<!-- Generator: Adobe Illustrator 16.0.0, SVG Export Plug-In . SVG Version: 6.00 Build 0)  -->
<!DOCTYPE svg PUBLIC "-//W3C//DTD SVG 1.0//EN" "http://www.w3.org/TR/2001/REC-SVG-20010904/DTD/svg10.dtd">
<svg version="1.0" id="Layer_1" xmlns="http://www.w3.org/2000/svg" xmlns:xlink="http://www.w3.org/1999/xlink" x="0px" y="0px"
	 width="512px" height="512px" viewBox="0 0 512 512" enable-background="new 0 0 512 512" xml:space="preserve">
<g>
	<g>
		<circle fill="#6898E0" cx="256" cy="256" r="230"/>
	</g>
	<path fill="#111823" d="M185.878,152.061v1.657v54.415v119.146c-6-2.121-15.193-2.619-23.742-1.067
		c-23.416,4.254-39.573,22.229-36.32,40.15c3.254,17.921,24.972,29.176,48.391,24.923c21.682-3.938,37.377-19.996,36.991-35.996
		l-0.262-151.832l116.942-21.402v118.266c-7-2.199-15.57-2.732-24.242-1.158c-23.416,4.255-39.666,22.23-36.411,40.15
		c3.254,17.922,24.927,28.852,48.347,24.598c21.814-3.961,37.462-19.621,36.877-36.621l0.43-149.731v-50.213v-5.86L185.878,152.061z
		"/>
</g>
</svg>
