<?xml version="1.0" encoding="utf-8"?>
<!-- Generator: Adobe Illustrator 16.0.0, SVG Export Plug-In . SVG Version: 6.00 Build 0)  -->
<!DOCTYPE svg PUBLIC "-//W3C//DTD SVG 1.0//EN" "http://www.w3.org/TR/2001/REC-SVG-20010904/DTD/svg10.dtd">
<svg version="1.0" id="Layer_1" xmlns="http://www.w3.org/2000/svg" xmlns:xlink="http://www.w3.org/1999/xlink" x="0px" y="0px"
	 width="512px" height="512px" viewBox="0 0 512 512" enable-background="new 0 0 512 512" xml:space="preserve">
<g>
	<polygon fill="#F4F6F9" points="349.729,454.636 370.521,423.414 401.743,444.205 422.536,412.983 453.759,433.777 
		474.554,402.557 443.334,381.762 464.126,350.54 432.905,329.744 453.697,298.523 422.478,277.73 443.271,246.508 412.049,225.715 
		432.843,194.494 401.621,173.697 422.415,142.479 391.193,121.682 411.986,90.463 380.766,69.666 401.556,38.446 370.336,17.65 
		349.539,48.874 318.32,28.08 297.525,59.301 266.301,38.51 245.509,69.729 214.289,48.936 193.493,80.158 162.271,59.365 
		141.478,90.586 110.256,69.793 89.462,101.015 58.24,80.221 37.446,111.443 68.667,132.236 47.875,163.457 79.096,184.252 
		58.303,215.475 89.524,236.269 68.73,267.488 99.953,288.285 79.16,319.507 110.38,340.3 89.587,371.521 120.809,392.316 
		100.016,423.537 131.234,444.331 110.443,475.551 141.666,496.349 162.46,465.126 193.68,485.92 214.474,454.697 245.697,475.491 
		266.491,444.271 297.71,465.065 318.507,433.841 	"/>
</g>
<rect x="116.613" y="92.057" transform="matrix(0.9805 -0.1966 0.1966 0.9805 -45.522 55.3338)" fill="#A5BFED" width="278.776" height="329.883"/>
</svg>
