<?xml version="1.0" encoding="utf-8"?>
<!-- Generator: Adobe Illustrator 16.0.0, SVG Export Plug-In . SVG Version: 6.00 Build 0)  -->
<!DOCTYPE svg PUBLIC "-//W3C//DTD SVG 1.0//EN" "http://www.w3.org/TR/2001/REC-SVG-20010904/DTD/svg10.dtd">
<svg version="1.0" id="Layer_1" xmlns="http://www.w3.org/2000/svg" xmlns:xlink="http://www.w3.org/1999/xlink" x="0px" y="0px"
	 width="512px" height="512px" viewBox="0 0 512 512" enable-background="new 0 0 512 512" xml:space="preserve">
<g>
	<polygon fill="#FFFFFF" points="96.259,430.133 58.353,215.121 423.805,150.618 449.525,299.769 393.484,378.269 	"/>
	<polygon fill="#CCCCCC" points="393.451,378.538 381.309,312.13 449.525,299.659 	"/>
	
		<rect x="47.386" y="89.424" transform="matrix(0.9848 -0.1738 0.1738 0.9848 -20.2016 42.5707)" fill="#CC5656" width="371.103" height="94.386"/>
</g>
<g>
	<path fill="#FFFFFF" d="M105.162,178.67c0.633,3.762,0.566,6.777-0.195,9.047c-1.426,4.15-5.035,6.711-10.826,7.686
		c-3.34,0.562-6.348,0.137-9.021-1.274s-4.4-4.433-5.178-9.064l-0.537-3.186l5.674-0.954l0.535,3.186
		c0.408,2.427,1.258,4.16,2.549,5.202c1.289,1.041,3.08,1.368,5.369,0.983c3.223-0.542,5.145-1.998,5.768-4.37
		c0.381-1.457,0.254-4.066-0.377-7.828l-4.996-29.699l5.977-1.005L105.162,178.67z"/>
	<path fill="#FFFFFF" d="M115.586,144.755l4.633,27.545c0.543,3.237,1.607,5.823,3.191,7.762c2.357,2.931,5.688,4.034,9.988,3.311
		c5.158-0.867,8.371-3.206,9.637-7.018c0.68-2.069,0.748-4.711,0.207-7.928l-4.633-27.545l6.098-1.025l4.209,25.028
		c0.922,5.48,0.891,9.822-0.094,13.024c-1.814,5.836-6.496,9.389-14.047,10.659c-7.549,1.27-13.125-0.559-16.729-5.483
		c-1.979-2.704-3.428-6.796-4.35-12.276l-4.209-25.028L115.586,144.755z"/>
	<path fill="#FFFFFF" d="M153.93,138.306l6.035-1.015l6.602,39.256l22.359-3.761l0.893,5.309l-28.395,4.775L153.93,138.306z"/>
</g>
<g>
	<path fill="#353535" d="M157.697,274.884l-3.49-20.756c9.53-2.042,16.146-3.814,19.844-5.318
		c5.891-2.382,10.416-5.931,13.573-10.642c2.163-3.226,3.534-7.269,4.106-12.134c0.314-2.912,0.357-5.046,0.129-6.401l25.463-4.282
		l26.09,155.131l-31.24,5.254L194.18,268.748L157.697,274.884z"/>
	<path fill="#353535" d="M367.166,216.259c-3.818,5.264-8.832,14.34-15.041,27.228c-6.209,12.891-11.034,25.932-14.473,39.124
		c-2.74,10.361-4.691,22.792-5.852,37.288c-1.164,14.498-0.996,26.205,0.504,35.12l-31.668,5.325
		c-3.749-27.973,0.523-58.432,12.818-91.376c8.076-20.501,15.281-35.06,21.613-43.68l-77.291,12.999l-4.179-27.46l109.556-18.426
		L367.166,216.259z"/>
</g>
</svg>
