<?xml version="1.0" encoding="utf-8"?>
<!-- Generator: Adobe Illustrator 16.0.0, SVG Export Plug-In . SVG Version: 6.00 Build 0)  -->
<!DOCTYPE svg PUBLIC "-//W3C//DTD SVG 1.0//EN" "http://www.w3.org/TR/2001/REC-SVG-20010904/DTD/svg10.dtd">
<svg version="1.0" id="Layer_1" xmlns="http://www.w3.org/2000/svg" xmlns:xlink="http://www.w3.org/1999/xlink" x="0px" y="0px"
	 width="512px" height="512px" viewBox="0 0 512 512" enable-background="new 0 0 512 512" xml:space="preserve">
<path fill="#9A9B9D" d="M393.975,428.311c0,32.895-62.406,59.564-139.39,59.564c-76.984,0-139.392-26.67-139.392-59.564
	c0-32.9,62.407-59.569,139.392-59.569C331.568,368.741,393.975,395.41,393.975,428.311z"/>
<ellipse fill="#333333" cx="254.584" cy="110.65" rx="193.06" ry="82.811"/>
<polygon fill="#FCE37C" points="114.714,125.279 168.001,87.502 227.36,114.762 233.433,179.797 180.146,217.575 120.786,190.316 
	"/>
<polygon fill="#FFFFFF" points="149.384,133.521 195.992,72.295 272.321,82.045 302.041,153.024 255.431,214.252 179.104,204.5 "/>
<polygon fill="#FCE37C" points="326.578,257.716 276.871,198.979 302.885,126.561 378.607,112.881 428.316,171.619 402.303,244.037 
	"/>
<polygon fill="#FFFFFF" points="226.839,178.164 250.326,104.889 325.527,88.591 377.244,145.57 353.754,218.848 278.554,235.144 
	"/>
<g>
	<path fill="#9A9B9D" d="M256.218,47.436c108.323,0,177.452,37.439,177.452,63.215s-69.129,63.215-177.452,63.215
		c-108.324,0-177.451-37.439-177.451-63.215S147.894,47.436,256.218,47.436 M254.585,25.662
		c-109.428,0-198.137,38.051-198.137,84.988s88.709,84.988,198.137,84.988c109.427,0,198.136-38.051,198.136-84.988
		S364.012,25.662,254.585,25.662L254.585,25.662z"/>
</g>
<path fill="#9A9B9D" d="M254.585,195.09c-98.734,0-180.59-30.979-195.646-71.511l56.255,304.56h278.781l56.256-304.56
	C435.174,164.111,353.318,195.09,254.585,195.09z"/>
</svg>
