<?xml version="1.0" encoding="utf-8"?>
<!-- Generator: Adobe Illustrator 16.0.0, SVG Export Plug-In . SVG Version: 6.00 Build 0)  -->
<!DOCTYPE svg PUBLIC "-//W3C//DTD SVG 1.0//EN" "http://www.w3.org/TR/2001/REC-SVG-20010904/DTD/svg10.dtd">
<svg version="1.0" id="Layer_1" xmlns="http://www.w3.org/2000/svg" xmlns:xlink="http://www.w3.org/1999/xlink" x="0px" y="0px"
	 width="512px" height="512px" viewBox="0 0 512 512" enable-background="new 0 0 512 512" xml:space="preserve">
<g>
	<g>
		<rect x="33" y="66.168" width="445.999" height="379.664"/>
	</g>
	<g>
		<rect x="21" y="60.167" fill="none" width="470" height="391.666"/>
	</g>
	<g>
		<polygon fill="#79CBBD" points="254.883,386.845 214.104,204.667 182.904,321.421 150.716,263.528 133.004,292 47.053,292 
			47.053,272 121.892,272 151.683,224.111 176.351,268.478 215.821,120.773 257.787,308.257 268.768,272 321.012,272 
			356.442,211.772 388.326,272 466.053,272 466.053,292 376.283,292 355.521,252.781 332.451,292 283.607,292 		"/>
	</g>
	<g>
		<path fill="#E6E6E6" d="M463,84v344H49V84H463 M491,56H21v400h470V56L491,56z"/>
	</g>
</g>
</svg>
