<?xml version="1.0" encoding="utf-8"?>
<!-- Generator: Adobe Illustrator 16.0.0, SVG Export Plug-In . SVG Version: 6.00 Build 0)  -->
<!DOCTYPE svg PUBLIC "-//W3C//DTD SVG 1.0//EN" "http://www.w3.org/TR/2001/REC-SVG-20010904/DTD/svg10.dtd">
<svg version="1.0" id="Layer_1" xmlns="http://www.w3.org/2000/svg" xmlns:xlink="http://www.w3.org/1999/xlink" x="0px" y="0px"
	 width="512px" height="512px" viewBox="0 0 512 512" enable-background="new 0 0 512 512" xml:space="preserve">
<g>
	<defs>
		<circle id="SVGID_7_" cx="261.938" cy="-362.328" r="230"/>
	</defs>
	<clipPath id="SVGID_2_">
		<use xlink:href="#SVGID_7_"  overflow="visible"/>
	</clipPath>
	<g clip-path="url(#SVGID_2_)">
		<g>
			<path fill="#143400" d="M261.938-200.328c43.271,0,83.953,16.851,114.552,47.448c30.598,30.598,47.448,71.279,47.448,114.552
				S407.088,45.626,376.49,76.224c-30.599,30.598-71.28,47.448-114.552,47.448c-43.272,0-83.954-16.851-114.552-47.448
				S99.938,4.944,99.938-38.328s16.851-83.954,47.448-114.552S218.666-200.328,261.938-200.328 M261.938-290.328
				c-139.177,0-252,112.823-252,252s112.823,252,252,252c139.176,0,252-112.823,252-252S401.114-290.328,261.938-290.328
				L261.938-290.328z"/>
		</g>
	</g>
</g>
<g>
	<rect x="23.848" y="40.132" fill="#42042C" width="464.305" height="428.59"/>
	<g>
		<path fill="#E05DB2" d="M460.693,67.786v373.282H51.306V67.786H460.693 M490.693,37.786H21.306v433.282h469.388V37.786
			L490.693,37.786z"/>
	</g>
</g>
</svg>
